<svg xmlns="http://www.w3.org/2000/svg" viewBox="0 0 512 512" style="height: 512px; width: 512px;"><defs><filter id="shadow-1" height="300%" width="300%" x="-100%" y="-100%"><feFlood flood-color="rgba(74, 144, 226, 1)" result="flood"></feFlood><feComposite in="flood" in2="SourceGraphic" operator="atop" result="composite"></feComposite><feGaussianBlur in="composite" stdDeviation="10" result="blur"></feGaussianBlur><feOffset dx="0" dy="0" result="offset"></feOffset><feComposite in="SourceGraphic" in2="offset" operator="over"></feComposite></filter><filter id="shadow-6" height="300%" width="300%" x="-100%" y="-100%"><feFlood flood-color="rgba(74, 144, 226, 1)" result="flood"></feFlood><feComposite in="flood" in2="SourceGraphic" operator="atop" result="composite"></feComposite><feGaussianBlur in="composite" stdDeviation="10" result="blur"></feGaussianBlur><feOffset dx="0" dy="0" result="offset"></feOffset><feComposite in="SourceGraphic" in2="offset" operator="over"></feComposite></filter><filter id="shadow-7" height="300%" width="300%" x="-100%" y="-100%"><feFlood flood-color="rgba(74, 144, 226, 1)" result="flood"></feFlood><feComposite in="flood" in2="SourceGraphic" operator="atop" result="composite"></feComposite><feGaussianBlur in="composite" stdDeviation="10" result="blur"></feGaussianBlur><feOffset dx="0" dy="0" result="offset"></feOffset><feComposite in="SourceGraphic" in2="offset" operator="over"></feComposite></filter><filter id="shadow-8" height="300%" width="300%" x="-100%" y="-100%"><feFlood flood-color="rgba(74, 144, 226, 1)" result="flood"></feFlood><feComposite in="flood" in2="SourceGraphic" operator="atop" result="composite"></feComposite><feGaussianBlur in="composite" stdDeviation="10" result="blur"></feGaussianBlur><feOffset dx="0" dy="0" result="offset"></feOffset><feComposite in="SourceGraphic" in2="offset" operator="over"></feComposite></filter><filter id="shadow-9" height="300%" width="300%" x="-100%" y="-100%"><feFlood flood-color="rgba(74, 144, 226, 1)" result="flood"></feFlood><feComposite in="flood" in2="SourceGraphic" operator="atop" result="composite"></feComposite><feGaussianBlur in="composite" stdDeviation="10" result="blur"></feGaussianBlur><feOffset dx="0" dy="0" result="offset"></feOffset><feComposite in="SourceGraphic" in2="offset" operator="over"></feComposite></filter><filter id="shadow-10" height="300%" width="300%" x="-100%" y="-100%"><feFlood flood-color="rgba(74, 144, 226, 1)" result="flood"></feFlood><feComposite in="flood" in2="SourceGraphic" operator="atop" result="composite"></feComposite><feGaussianBlur in="composite" stdDeviation="10" result="blur"></feGaussianBlur><feOffset dx="0" dy="0" result="offset"></feOffset><feComposite in="SourceGraphic" in2="offset" operator="over"></feComposite></filter><radialGradient id="gradient-1"><stop offset="0%" stop-color="#ffffff" stop-opacity="1"></stop><stop offset="100%" stop-color="#4a90e2" stop-opacity="1"></stop></radialGradient><linearGradient x1="0" x2="1" y1="1" y2="0" id="gradient-2"><stop offset="0%" stop-color="#000000" stop-opacity="1"></stop><stop offset="100%" stop-color="#9b9b9b" stop-opacity="1"></stop></linearGradient><radialGradient id="gradient-3"><stop offset="0%" stop-color="#0e2b4e" stop-opacity="1"></stop><stop offset="100%" stop-color="#d3e4f1" stop-opacity="1"></stop></radialGradient><linearGradient x1="0" x2="1" y1="1" y2="0" id="gradient-4"><stop offset="0%" stop-color="#f8e71c" stop-opacity="1"></stop><stop offset="100%" stop-color="#caab94" stop-opacity="1"></stop></linearGradient><linearGradient x1="0" x2="1" y1="1" y2="0" id="gradient-5"><stop offset="0%" stop-color="#f5a623" stop-opacity="1"></stop><stop offset="100%" stop-color="#f8e71c" stop-opacity="1"></stop></linearGradient><linearGradient x1="0" x2="1" y1="1" y2="0" id="gradient-6"><stop offset="0%" stop-color="#f5a623" stop-opacity="1"></stop><stop offset="100%" stop-color="#f8e71c" stop-opacity="1"></stop></linearGradient><linearGradient x1="0" x2="1" y1="0" y2="1" id="gradient-7"><stop offset="0%" stop-color="#f8e71c" stop-opacity="1"></stop><stop offset="100%" stop-color="#f5a623" stop-opacity="1"></stop></linearGradient><linearGradient id="gradient-8" x1="0" x2="0" y1="0" y2="1"><stop offset="0%" stop-color="#f5a623" stop-opacity="1"></stop><stop offset="100%" stop-color="#f8e71c" stop-opacity="1"></stop></linearGradient><radialGradient id="gradient-9"><stop offset="0%" stop-color="#ffffff" stop-opacity="1"></stop><stop offset="100%" stop-color="#4a90e2" stop-opacity="1"></stop></radialGradient><radialGradient id="gradient-10"><stop offset="0%" stop-color="#ffffff" stop-opacity="1"></stop><stop offset="100%" stop-color="#4a90e2" stop-opacity="1"></stop></radialGradient></defs><g class="" transform="translate(0,0)" style="touch-action: none;"><g><path d="M254.25 15.344C121.713 15.344 14.062 122.964 14.062 255.5C14.062 388.037 121.712 495.688 254.25 495.688C386.787 495.688 494.406 388.038 494.406 255.5C494.406 122.963 386.786 15.344 254.25 15.344Z" class="" fill="url(#gradient-2)" stroke="#ccc" stroke-opacity="1" stroke-width="2"></path><path d="M254.25 34.031C376.686 34.031 475.72 133.065 475.72 255.501C475.72 321.151 447.255 380.084 401.97 420.626L401.97 238.75L415.97 215.97L408.375 215.97L364 101.5L320.187 215.97L312.031 215.97L326.626 238.75L326.626 272.625L289.813 272.625L289.813 184.437L304.438 161.657L296.845 161.657L252.439 47.187L208.064 161.657L200.47 161.657L214.5 184.437L214.5 307.657L177.125 307.657L177.125 289.563L191.719 266.781L183.529 266.781L139.749 152.314L95.344 266.78L87.75 266.78L101.78 289.563L101.78 416.25C59.25 375.9 32.75 318.83 32.75 255.5C32.75 133.064 131.814 34.03 254.25 34.03Z" class="" fill="url(#gradient-3)" stroke="#225188" stroke-opacity="1" stroke-width="2"></path><path d="M255.344 194.563L274.031 194.563L274.031 230.907L255.345 230.907L255.345 194.563Z" class="" fill="url(#gradient-4)" stroke="#8b572a" stroke-opacity="1" stroke-width="1"></path><path d="M365.5 282.533L384.188 282.533L384.188 318.845L365.5 318.845L365.5 282.53Z" class="" fill="url(#gradient-5)" stroke="#f8e71c" stroke-opacity="1" stroke-width="1"></path><path d="M118.844 304.563L137.531 304.563L137.531 340.907L118.845 340.907L118.845 304.563Z" class="" fill="url(#gradient-6)" stroke="#9b9b9b" stroke-opacity="1" stroke-width="1" filter="url(#shadow-6)"></path><path d="M169.719 333.97L188.405 333.97L188.405 370.312L169.72 370.312L169.72 333.97Z" class="selected" fill="url(#gradient-7)" filter="url(#shadow-7)"></path><path d="M340.529 364.47L359.219 364.47L359.219 400.812L340.529 400.812L340.529 364.47Z" class="" fill="url(#gradient-8)" filter="url(#shadow-8)"></path></g></g></svg>