<svg xmlns="http://www.w3.org/2000/svg" viewBox="0 0 512 512" style="height: 512px; width: 512px;"><defs><filter id="shadow-1" height="300%" width="300%" x="-100%" y="-100%"><feFlood flood-color="rgba(74, 144, 226, 1)" result="flood"></feFlood><feComposite in="flood" in2="SourceGraphic" operator="atop" result="composite"></feComposite><feGaussianBlur in="composite" stdDeviation="10" result="blur"></feGaussianBlur><feOffset dx="0" dy="0" result="offset"></feOffset><feComposite in="SourceGraphic" in2="offset" operator="over"></feComposite></filter><filter id="shadow-2" height="300%" width="300%" x="-100%" y="-100%"><feFlood flood-color="rgba(245, 166, 35, 1)" result="flood"></feFlood><feComposite in="flood" in2="SourceGraphic" operator="out" result="composite"></feComposite><feGaussianBlur in="composite" stdDeviation="15" result="blur"></feGaussianBlur><feOffset dx="0" dy="0" result="offset"></feOffset><feComposite in2="SourceGraphic" in="offset" operator="atop"></feComposite></filter><filter id="shadow-3" height="300%" width="300%" x="-100%" y="-100%"><feFlood flood-color="rgba(245, 166, 35, 1)" result="flood"></feFlood><feComposite in="flood" in2="SourceGraphic" operator="atop" result="composite"></feComposite><feGaussianBlur in="composite" stdDeviation="15" result="blur"></feGaussianBlur><feOffset dx="0" dy="0" result="offset"></feOffset><feComposite in="SourceGraphic" in2="offset" operator="over"></feComposite></filter><filter id="shadow-4" height="300%" width="300%" x="-100%" y="-100%"><feFlood flood-color="rgba(245, 166, 35, 1)" result="flood"></feFlood><feComposite in="flood" in2="SourceGraphic" operator="atop" result="composite"></feComposite><feGaussianBlur in="composite" stdDeviation="15" result="blur"></feGaussianBlur><feOffset dx="0" dy="0" result="offset"></feOffset><feComposite in="SourceGraphic" in2="offset" operator="over"></feComposite></filter><filter id="shadow-5" height="300%" width="300%" x="-100%" y="-100%"><feFlood flood-color="rgba(208, 2, 27, 1)" result="flood"></feFlood><feComposite in="flood" in2="SourceGraphic" operator="atop" result="composite"></feComposite><feGaussianBlur in="composite" stdDeviation="10" result="blur"></feGaussianBlur><feOffset dx="0" dy="0" result="offset"></feOffset><feComposite in="SourceGraphic" in2="offset" operator="over"></feComposite></filter><filter id="shadow-6" height="300%" width="300%" x="-100%" y="-100%"><feFlood flood-color="rgba(74, 144, 226, 1)" result="flood"></feFlood><feComposite in="flood" in2="SourceGraphic" operator="atop" result="composite"></feComposite><feGaussianBlur in="composite" stdDeviation="10" result="blur"></feGaussianBlur><feOffset dx="0" dy="0" result="offset"></feOffset><feComposite in="SourceGraphic" in2="offset" operator="over"></feComposite></filter><filter id="shadow-7" height="300%" width="300%" x="-100%" y="-100%"><feFlood flood-color="rgba(74, 144, 226, 1)" result="flood"></feFlood><feComposite in="flood" in2="SourceGraphic" operator="atop" result="composite"></feComposite><feGaussianBlur in="composite" stdDeviation="10" result="blur"></feGaussianBlur><feOffset dx="0" dy="0" result="offset"></feOffset><feComposite in="SourceGraphic" in2="offset" operator="over"></feComposite></filter><filter id="shadow-9" height="300%" width="300%" x="-100%" y="-100%"><feFlood flood-color="rgba(74, 144, 226, 1)" result="flood"></feFlood><feComposite in="flood" in2="SourceGraphic" operator="atop" result="composite"></feComposite><feGaussianBlur in="composite" stdDeviation="10" result="blur"></feGaussianBlur><feOffset dx="0" dy="0" result="offset"></feOffset><feComposite in="SourceGraphic" in2="offset" operator="over"></feComposite></filter><filter id="shadow-10" height="300%" width="300%" x="-100%" y="-100%"><feFlood flood-color="rgba(74, 144, 226, 1)" result="flood"></feFlood><feComposite in="flood" in2="SourceGraphic" operator="atop" result="composite"></feComposite><feGaussianBlur in="composite" stdDeviation="10" result="blur"></feGaussianBlur><feOffset dx="0" dy="0" result="offset"></feOffset><feComposite in="SourceGraphic" in2="offset" operator="over"></feComposite></filter><filter id="shadow-11" height="300%" width="300%" x="-100%" y="-100%"><feFlood flood-color="rgba(74, 144, 226, 1)" result="flood"></feFlood><feComposite in="flood" in2="SourceGraphic" operator="atop" result="composite"></feComposite><feGaussianBlur in="composite" stdDeviation="10" result="blur"></feGaussianBlur><feOffset dx="0" dy="0" result="offset"></feOffset><feComposite in="SourceGraphic" in2="offset" operator="over"></feComposite></filter><filter id="shadow-12" height="300%" width="300%" x="-100%" y="-100%"><feFlood flood-color="rgba(74, 144, 226, 1)" result="flood"></feFlood><feComposite in="flood" in2="SourceGraphic" operator="atop" result="composite"></feComposite><feGaussianBlur in="composite" stdDeviation="10" result="blur"></feGaussianBlur><feOffset dx="0" dy="0" result="offset"></feOffset><feComposite in="SourceGraphic" in2="offset" operator="over"></feComposite></filter><filter id="shadow-13" height="300%" width="300%" x="-100%" y="-100%"><feFlood flood-color="rgba(74, 144, 226, 1)" result="flood"></feFlood><feComposite in="flood" in2="SourceGraphic" operator="atop" result="composite"></feComposite><feGaussianBlur in="composite" stdDeviation="10" result="blur"></feGaussianBlur><feOffset dx="0" dy="0" result="offset"></feOffset><feComposite in="SourceGraphic" in2="offset" operator="over"></feComposite></filter><filter id="shadow-14" height="300%" width="300%" x="-100%" y="-100%"><feFlood flood-color="rgba(74, 144, 226, 1)" result="flood"></feFlood><feComposite in="flood" in2="SourceGraphic" operator="atop" result="composite"></feComposite><feGaussianBlur in="composite" stdDeviation="10" result="blur"></feGaussianBlur><feOffset dx="0" dy="0" result="offset"></feOffset><feComposite in="SourceGraphic" in2="offset" operator="over"></feComposite></filter><filter id="shadow-15" height="300%" width="300%" x="-100%" y="-100%"><feFlood flood-color="rgba(74, 144, 226, 1)" result="flood"></feFlood><feComposite in="flood" in2="SourceGraphic" operator="atop" result="composite"></feComposite><feGaussianBlur in="composite" stdDeviation="10" result="blur"></feGaussianBlur><feOffset dx="0" dy="0" result="offset"></feOffset><feComposite in="SourceGraphic" in2="offset" operator="over"></feComposite></filter><filter id="shadow-16" height="300%" width="300%" x="-100%" y="-100%"><feFlood flood-color="rgba(74, 144, 226, 1)" result="flood"></feFlood><feComposite in="flood" in2="SourceGraphic" operator="atop" result="composite"></feComposite><feGaussianBlur in="composite" stdDeviation="10" result="blur"></feGaussianBlur><feOffset dx="0" dy="0" result="offset"></feOffset><feComposite in="SourceGraphic" in2="offset" operator="over"></feComposite></filter><filter id="shadow-17" height="300%" width="300%" x="-100%" y="-100%"><feFlood flood-color="rgba(74, 144, 226, 1)" result="flood"></feFlood><feComposite in="flood" in2="SourceGraphic" operator="atop" result="composite"></feComposite><feGaussianBlur in="composite" stdDeviation="10" result="blur"></feGaussianBlur><feOffset dx="0" dy="0" result="offset"></feOffset><feComposite in="SourceGraphic" in2="offset" operator="over"></feComposite></filter><filter id="shadow-18" height="300%" width="300%" x="-100%" y="-100%"><feFlood flood-color="rgba(74, 144, 226, 1)" result="flood"></feFlood><feComposite in="flood" in2="SourceGraphic" operator="atop" result="composite"></feComposite><feGaussianBlur in="composite" stdDeviation="10" result="blur"></feGaussianBlur><feOffset dx="0" dy="0" result="offset"></feOffset><feComposite in="SourceGraphic" in2="offset" operator="over"></feComposite></filter><filter id="shadow-19" height="300%" width="300%" x="-100%" y="-100%"><feFlood flood-color="rgba(74, 144, 226, 1)" result="flood"></feFlood><feComposite in="flood" in2="SourceGraphic" operator="atop" result="composite"></feComposite><feGaussianBlur in="composite" stdDeviation="10" result="blur"></feGaussianBlur><feOffset dx="0" dy="0" result="offset"></feOffset><feComposite in="SourceGraphic" in2="offset" operator="over"></feComposite></filter><radialGradient id="gradient-1"><stop offset="0%" stop-color="#ffffff" stop-opacity="1"></stop><stop offset="100%" stop-color="#4a90e2" stop-opacity="1"></stop></radialGradient><radialGradient id="gradient-2"><stop offset="0%" stop-color="#f8e71c" stop-opacity="1"></stop><stop offset="100%" stop-color="#d0021b" stop-opacity="1"></stop></radialGradient><radialGradient id="gradient-3"><stop offset="0%" stop-color="#f8e71c" stop-opacity="1"></stop><stop offset="100%" stop-color="#f5a623" stop-opacity="1"></stop></radialGradient><radialGradient id="gradient-4"><stop offset="0%" stop-color="#f8e71c" stop-opacity="1"></stop><stop offset="100%" stop-color="#770815" stop-opacity="1"></stop></radialGradient><radialGradient id="gradient-5"><stop offset="0%" stop-color="#f8e71c" stop-opacity="1"></stop><stop offset="100%" stop-color="#f5a623" stop-opacity="1"></stop></radialGradient><linearGradient x1="0" x2="1" y1="1" y2="0" id="gradient-6"><stop offset="0%" stop-color="#d9d38f" stop-opacity="1"></stop><stop offset="100%" stop-color="#ffffff" stop-opacity="1"></stop></linearGradient><linearGradient x1="0" x2="1" y1="1" y2="0" id="gradient-7"><stop offset="0%" stop-color="#d9d385" stop-opacity="1"></stop><stop offset="100%" stop-color="#ffffff" stop-opacity="1"></stop></linearGradient><radialGradient id="gradient-8"><stop offset="0%" stop-color="#ffffff" stop-opacity="1"></stop><stop offset="100%" stop-color="#4a90e2" stop-opacity="1"></stop></radialGradient><linearGradient x1="0" x2="1" y1="1" y2="0" id="gradient-9"><stop offset="0%" stop-color="#8b572a" stop-opacity="1"></stop><stop offset="100%" stop-color="#cf6d18" stop-opacity="1"></stop></linearGradient><linearGradient x1="0" x2="1" y1="0" y2="1" id="gradient-10"><stop offset="0%" stop-color="#c8752c" stop-opacity="1"></stop><stop offset="100%" stop-color="#8b572a" stop-opacity="1"></stop></linearGradient><radialGradient id="gradient-11"><stop offset="0%" stop-color="#ffffff" stop-opacity="1"></stop><stop offset="100%" stop-color="#4a90e2" stop-opacity="1"></stop></radialGradient><linearGradient x1="0" x2="1" y1="1" y2="0" id="gradient-12"><stop offset="0%" stop-color="#8b572a" stop-opacity="1"></stop><stop offset="100%" stop-color="#b67338" stop-opacity="1"></stop></linearGradient><radialGradient id="gradient-13"><stop offset="0%" stop-color="#ffffff" stop-opacity="1"></stop><stop offset="100%" stop-color="#4a90e2" stop-opacity="1"></stop></radialGradient><radialGradient id="gradient-14"><stop offset="0%" stop-color="#ffffff" stop-opacity="1"></stop><stop offset="100%" stop-color="#4a90e2" stop-opacity="1"></stop></radialGradient><linearGradient x1="0" x2="1" y1="1" y2="0" id="gradient-15"><stop offset="0%" stop-color="#8b572a" stop-opacity="1"></stop><stop offset="100%" stop-color="#946b4b" stop-opacity="1"></stop></linearGradient><radialGradient id="gradient-16"><stop offset="0%" stop-color="#ffffff" stop-opacity="1"></stop><stop offset="100%" stop-color="#4a90e2" stop-opacity="1"></stop></radialGradient><linearGradient x1="0" x2="1" y1="0" y2="1" id="gradient-17"><stop offset="0%" stop-color="#d9d385" stop-opacity="1"></stop><stop offset="100%" stop-color="#8b572a" stop-opacity="1"></stop></linearGradient><linearGradient x1="0" x2="1" y1="0" y2="1" id="gradient-18"><stop offset="0%" stop-color="#d9d385" stop-opacity="1"></stop><stop offset="100%" stop-color="#8b572a" stop-opacity="1"></stop></linearGradient><linearGradient x1="0" x2="1" y1="1" y2="0" id="gradient-19"><stop offset="0%" stop-color="#8b572a" stop-opacity="1"></stop><stop offset="100%" stop-color="#a88567" stop-opacity="1"></stop></linearGradient></defs><g class="" transform="translate(-1,-1)" style="touch-action: none;"><g><path d="M319.61 20.654C332.755 53.768 332.754 53.769 314.15 84.154C347.264 71.009 347.266 71.008 377.65 89.611C364.505 56.497 364.504 56.498 383.107 26.113C349.993 39.259 349.994 39.258 319.609 20.654Z" class="selected" fill="url(#gradient-2)" stroke="#f8e71c" stroke-opacity="1" stroke-width="2" filter="url(#shadow-2)"></path><path d="M113.024 38.021C101.216 59.061 101.216 59.061 77.3 62.238C98.34 74.047 98.34 74.046 101.517 97.963C113.325 76.923 113.325 76.923 137.241 73.746C116.201 61.938 116.201 61.938 113.024 38.021Z" class="" fill="url(#gradient-3)" stroke="#f5a623" stroke-opacity="1" stroke-width="1" filter="url(#shadow-3)"></path><path d="M189.574 94.205C188.622 144.793 188.624 144.793 147.583 174.385C198.17 175.335 198.171 175.335 227.763 216.375C228.713 165.787 228.713 165.787 269.753 136.195C219.165 135.245 219.165 135.245 189.573 94.205Z" class="" fill="url(#gradient-4)" stroke="#8b572a" stroke-opacity="1" stroke-width="1" filter="url(#shadow-4)"></path><path d="M380.751 150.09C380.705 174.217 380.703 174.215 361.374 188.654C385.501 188.701 385.501 188.7 399.94 208.029C399.987 183.903 399.986 183.904 419.315 169.465C395.189 169.418 395.19 169.419 380.751 150.09Z" class="" fill="url(#gradient-5)" stroke="#f8e71c" stroke-opacity="1" stroke-width="1" filter="url(#shadow-5)"></path><path d="M196.665 233.97C195.474 233.994 194.305 234.04 193.173 234.104C174.582 235.168 151.305 242.52 115.728 256.66L76.012 433.582C154.499 412.848 208.982 411.673 247.002 428.967L247.002 247.71C228.926 238.897 215.212 234.311 200.295 233.973C199.085 233.948 197.876 233.948 196.666 233.971Z" class="" fill="url(#gradient-6)" stroke="#9b9b9b" stroke-opacity="1" stroke-width="1" filter="url(#shadow-6)"></path><path d="M319.351 245.39C316.435 245.364 313.541 245.401 310.837 245.488C298.027 245.905 283.199 247.703 264.997 250.01L264.997 427.145C308.562 419.32 371.847 422.945 436.241 434.711L396.461 257.514C360.557 249.144 339.872 245.604 319.351 245.391Z" class="" fill="url(#gradient-7)" filter="url(#shadow-7)"></path><path d="M321.64 262.34C340.529 262.544 358.492 265.108 375.347 267.36L379.784 283.883C356.004 280.133 313.818 278.977 287.317 282.903L286.681 265.098C298.64 262.944 310.306 262.218 321.64 262.34Z" class="" fill="url(#gradient-8)"></path><path d="M71.157 266.998L60.54 313.002L84.634 313.002L94.96 266.998L71.158 266.998Z" class="" fill="url(#gradient-9)" filter="url(#shadow-9)"></path><path d="M417.038 266.998L456.78 444.029L459.019 454.002L481.61 453.85L440.755 266.998L417.038 266.998Z" class="" fill="url(#gradient-10)" filter="url(#shadow-10)"></path><path d="M338.181 324.818C355.174 324.844 371.851 325.609 387.327 327.041L390.851 344.215C358.206 341.135 318.271 341.326 287.856 344.215L287.147 327.041C303.88 325.508 321.187 324.793 338.181 324.818Z" class="" fill="url(#gradient-11)" filter="url(#shadow-11)"></path><path d="M56.388 330.998L49.464 361.002L73.858 361.002L80.593 330.998L56.389 330.998Z" class="" fill="url(#gradient-12)" filter="url(#shadow-12)"></path><path d="M330.806 358.242C335.462 358.263 340.293 358.327 345.522 358.445L348.077 375.943C328.107 375.472 300.962 376.503 288.349 376.993L287.649 359.008C304.452 358.515 316.838 358.18 330.806 358.242Z" class="" fill="url(#gradient-13)" filter="url(#shadow-13)"></path><path d="M372.282 358.689C380.55 358.731 388.979 359.023 396.403 358.758L398.983 376.498C390.33 376.186 374.113 375.668 366.919 375.996L364.112 358.762C366.835 358.694 369.558 358.67 372.282 358.689Z" class="" fill="url(#gradient-14)" filter="url(#shadow-14)"></path><path d="M45.312 378.998L27.327 456.926L52.362 456.756L69.817 378.998L45.313 378.998Z" class="" fill="url(#gradient-15)" filter="url(#shadow-15)"></path><path d="M348.476 390.846C368.084 390.836 387.136 391.62 404.925 393.418L407.921 414.205C373.616 409.961 322.166 406.508 288.821 410.961L288.681 393.039C308.701 391.66 328.867 390.856 348.476 390.846Z" class="" fill="url(#gradient-16)" filter="url(#shadow-16)"></path><path d="M181.87 434.896C151.758 434.986 113.954 441.146 66.462 454.656L59.242 456.709L247.001 455.439L247.001 449.092C230.765 439.886 209.581 434.814 181.871 434.896Z" class="" fill="url(#gradient-17)" filter="url(#shadow-17)"></path><path d="M316.28 441.07C296.65 441.137 279.168 442.509 264.997 445.252L264.997 455.316L442.591 454.113C398.269 445.479 353.454 440.943 316.281 441.07Z" class="" fill="url(#gradient-18)" filter="url(#shadow-18)"></path><path d="M26 475L26 493L486 493L486 475L26 475Z" class="" fill="url(#gradient-19)" filter="url(#shadow-19)"></path></g></g></svg>