<svg xmlns="http://www.w3.org/2000/svg" viewBox="0 0 512 512" style="height: 512px; width: 512px;"><defs><filter id="shadow-1" height="300%" width="300%" x="-100%" y="-100%"><feFlood flood-color="rgba(74, 144, 226, 1)" result="flood"></feFlood><feComposite in="flood" in2="SourceGraphic" operator="atop" result="composite"></feComposite><feGaussianBlur in="composite" stdDeviation="10" result="blur"></feGaussianBlur><feOffset dx="0" dy="0" result="offset"></feOffset><feComposite in="SourceGraphic" in2="offset" operator="over"></feComposite></filter><filter id="shadow-2" height="300%" width="300%" x="-100%" y="-100%"><feFlood flood-color="rgba(70, 85, 222, 1)" result="flood"></feFlood><feComposite in="flood" in2="SourceGraphic" operator="out" result="composite"></feComposite><feGaussianBlur in="composite" stdDeviation="15" result="blur"></feGaussianBlur><feOffset dx="0" dy="0" result="offset"></feOffset><feComposite in="offset" in2="SourceGraphic" operator="atop"></feComposite></filter><filter id="shadow-6" height="300%" width="300%" x="-100%" y="-100%"><feFlood flood-color="rgba(74, 144, 226, 1)" result="flood"></feFlood><feComposite in="flood" in2="SourceGraphic" operator="atop" result="composite"></feComposite><feGaussianBlur in="composite" stdDeviation="10" result="blur"></feGaussianBlur><feOffset dx="0" dy="0" result="offset"></feOffset><feComposite in="SourceGraphic" in2="offset" operator="over"></feComposite></filter><radialGradient id="gradient-1"><stop offset="0%" stop-color="#ffffff" stop-opacity="1"></stop><stop offset="100%" stop-color="#4a90e2" stop-opacity="1"></stop></radialGradient><linearGradient x1="0" x2="1" y1="1" y2="0" id="gradient-2"><stop offset="0%" stop-color="#000000" stop-opacity="1"></stop><stop offset="100%" stop-color="#3b628d" stop-opacity="1"></stop></linearGradient><linearGradient id="gradient-3" x1="0" x2="1" y1="1" y2="0"><stop offset="0%" stop-color="#231703" stop-opacity="1"></stop><stop offset="100%" stop-color="#ddb592" stop-opacity="1"></stop></linearGradient><linearGradient x1="0" x2="1" y1="1" y2="0" id="gradient-4"><stop offset="0%" stop-color="#4e2d10" stop-opacity="1"></stop><stop offset="100%" stop-color="#caab94" stop-opacity="1"></stop></linearGradient><linearGradient x1="0" x2="1" y1="1" y2="0" id="gradient-5"><stop offset="0%" stop-color="#f5a623" stop-opacity="1"></stop><stop offset="100%" stop-color="#f8e71c" stop-opacity="1"></stop></linearGradient><linearGradient x1="0" x2="1" y1="1" y2="0" id="gradient-6"><stop offset="0%" stop-color="#4a4a4a" stop-opacity="1"></stop><stop offset="100%" stop-color="#ffffff" stop-opacity="1"></stop></linearGradient></defs><g class="" transform="translate(0,0)" style="touch-action: none;"><g><path d="M24.68 24.68C21.145 28.217 18.83 34.459 18.83 40.944C18.83 45.334 19.953 49.544 21.735 52.947L45.145 45.144L52.947 21.735C49.544 19.953 45.335 18.831 40.944 18.831C34.459 18.831 28.217 21.145 24.681 24.681Z" class="" fill="url(#gradient-2)" filter="url(#shadow-2)"></path><path d="M41.813 65.225L84.49 105.82C87.43 101.337 90.45 97.503 93.976 93.977C97.502 90.452 101.336 87.431 105.819 84.491L65.226 41.814L59.372 59.372Z" class="" fill="url(#gradient-3)" stroke="#8b572a" stroke-opacity="1" stroke-width="1"></path><path d="M106.705 106.705C103.638 109.772 100.887 113.468 97.833 118.511L175.279 192.178C177.924 188.871 180.493 185.962 183.227 183.228C185.962 180.493 188.871 177.924 192.178 175.279L118.511 97.833C113.468 100.887 109.772 103.638 106.705 106.705Z" class="" fill="url(#gradient-4)" stroke="#8b572a" stroke-opacity="1" stroke-width="1"></path><path d="M195.646 195.645C186.532 204.76 178.566 218.092 159.976 246.243L171.068 257.335C205.228 205.715 205.715 205.229 257.335 171.068L246.243 159.976C218.093 178.566 204.76 186.532 195.646 195.646Z" class="" fill="url(#gradient-5)" stroke="#f8e71c" stroke-opacity="1" stroke-width="1"></path><path d="M219.688 219.688C215.69 223.685 212.111 228.228 207.83 234.349L450.695 471.933L493.169 493.169L471.933 450.695L234.349 207.83C228.229 212.111 223.685 215.69 219.688 219.688Z" class="selected" fill="url(#gradient-6)" filter="url(#shadow-6)" stroke="#9b9b9b" stroke-opacity="1" stroke-width="1"></path></g></g></svg>